<svg xmlns="http://www.w3.org/2000/svg" viewBox="0 0 200 58"><title>lh_logo</title><g id="Layer_2" data-name="Layer 2"><g id="art"><path d="M78,18.06V3.92h3V15.59h5.75v2.47Z" style="fill:#c62c2c"/><path d="M95.86,18.06l-.57-1.47h-.08a4.3,4.3,0,0,1-1.54,1.3,4.84,4.84,0,0,1-2.06.37,3.36,3.36,0,0,1-2.46-.89,3.42,3.42,0,0,1-.9-2.54,2.87,2.87,0,0,1,1.21-2.54,7,7,0,0,1,3.64-.9L95,11.33v-.48A1.47,1.47,0,0,0,93.3,9.21a7.74,7.74,0,0,0-3.06.78l-1-2a8.85,8.85,0,0,1,4.15-1,5.2,5.2,0,0,1,3.35,1,3.48,3.48,0,0,1,1.16,2.88v7.21Zm-.88-5-1.14,0a3.65,3.65,0,0,0-1.92.46,1.47,1.47,0,0,0-.63,1.3c0,.83.48,1.25,1.44,1.25a2.29,2.29,0,0,0,1.64-.59A2.09,2.09,0,0,0,95,13.94Z" style="fill:#c62c2c"/><path d="M111,18.06h-3V11.74A3,3,0,0,0,107.6,10a1.52,1.52,0,0,0-1.33-.59,2,2,0,0,0-1.79.83,5.11,5.11,0,0,0-.55,2.74v5.09h-3V7.24h2.26l.4,1.39h.16a3.09,3.09,0,0,1,1.36-1.19,4.64,4.64,0,0,1,2-.4,3.81,3.81,0,0,1,2.87,1A4.1,4.1,0,0,1,111,11Z" style="fill:#c62c2c"/><path d="M117.45,18.26a3.55,3.55,0,0,1-3-1.48,6.87,6.87,0,0,1-1.09-4.11,6.79,6.79,0,0,1,1.11-4.14A3.61,3.61,0,0,1,117.53,7a3.52,3.52,0,0,1,3.12,1.59h.1a12,12,0,0,1-.22-2.16V3h3V18.06h-2.27l-.58-1.4h-.12A3.4,3.4,0,0,1,117.45,18.26Zm1-2.36a2,2,0,0,0,1.66-.65,3.77,3.77,0,0,0,.58-2.24v-.32a4.37,4.37,0,0,0-.54-2.49,2,2,0,0,0-1.75-.76,1.72,1.72,0,0,0-1.53.84,4.42,4.42,0,0,0-.55,2.43,4.24,4.24,0,0,0,.55,2.4A1.81,1.81,0,0,0,118.49,15.9Z" style="fill:#c62c2c"/><path d="M134.15,14.85A3,3,0,0,1,133,17.39a5.76,5.76,0,0,1-3.47.87,11.56,11.56,0,0,1-2-.16,8.34,8.34,0,0,1-1.56-.47V15.19a10.64,10.64,0,0,0,1.86.65,7.72,7.72,0,0,0,1.82.26c1.07,0,1.61-.31,1.61-.93a.81.81,0,0,0-.22-.57,3.11,3.11,0,0,0-.74-.49c-.34-.18-.81-.4-1.39-.64a8.54,8.54,0,0,1-1.84-1,2.7,2.7,0,0,1-.85-1,3.36,3.36,0,0,1-.27-1.42,2.57,2.57,0,0,1,1.12-2.23A5.45,5.45,0,0,1,130.23,7a9,9,0,0,1,3.81.85L133.15,10q-.83-.35-1.53-.57a4.7,4.7,0,0,0-1.44-.22c-.87,0-1.31.23-1.31.7a.82.82,0,0,0,.42.69,11.81,11.81,0,0,0,1.85.86,8.16,8.16,0,0,1,1.86,1,2.81,2.81,0,0,1,.87,1A3.06,3.06,0,0,1,134.15,14.85Z" style="fill:#c62c2c"/><path d="M140.87,18.26q-5.07,0-5.07-5.55a5.88,5.88,0,0,1,1.38-4.21A5.18,5.18,0,0,1,141.13,7a7.52,7.52,0,0,1,3.37.74l-.87,2.28c-.47-.19-.9-.34-1.3-.46a4.16,4.16,0,0,0-1.2-.18q-2.31,0-2.31,3.27t2.31,3.18a5.34,5.34,0,0,0,1.58-.23,5.71,5.71,0,0,0,1.45-.71v2.52a4.48,4.48,0,0,1-1.45.63A7.88,7.88,0,0,1,140.87,18.26Z" style="fill:#c62c2c"/><path d="M153.56,18.06,153,16.59h-.08a4.3,4.3,0,0,1-1.54,1.3,4.81,4.81,0,0,1-2.06.37,3.36,3.36,0,0,1-2.46-.89,3.46,3.46,0,0,1-.89-2.54,2.86,2.86,0,0,1,1.2-2.54,7,7,0,0,1,3.65-.9l1.88-.06v-.48A1.48,1.48,0,0,0,151,9.21a7.74,7.74,0,0,0-3.06.78l-1-2a8.82,8.82,0,0,1,4.15-1,5.17,5.17,0,0,1,3.34,1,3.48,3.48,0,0,1,1.17,2.88v7.21Zm-.87-5-1.15,0a3.65,3.65,0,0,0-1.92.46,1.47,1.47,0,0,0-.63,1.3c0,.83.48,1.25,1.44,1.25a2.29,2.29,0,0,0,1.64-.59,2.09,2.09,0,0,0,.62-1.57Z" style="fill:#c62c2c"/><path d="M164.62,18.26a3.57,3.57,0,0,1-3-1.39h-.16c.11.91.16,1.43.16,1.57v4.38h-3V7.24h2.4l.42,1.41h.14A3.42,3.42,0,0,1,164.7,7a3.53,3.53,0,0,1,3,1.48,6.87,6.87,0,0,1,1.08,4.11,8.29,8.29,0,0,1-.5,3,4.33,4.33,0,0,1-1.45,1.95A3.79,3.79,0,0,1,164.62,18.26Zm-.87-8.86a1.9,1.9,0,0,0-1.6.67,3.9,3.9,0,0,0-.52,2.23v.31a4.5,4.5,0,0,0,.52,2.5,1.85,1.85,0,0,0,1.64.76c1.33,0,2-1.09,2-3.28a4.61,4.61,0,0,0-.49-2.39A1.68,1.68,0,0,0,163.75,9.4Z" style="fill:#c62c2c"/><path d="M176.15,18.26a5.59,5.59,0,0,1-4.1-1.45,5.45,5.45,0,0,1-1.47-4.08,6,6,0,0,1,1.36-4.2A4.87,4.87,0,0,1,175.71,7a4.8,4.8,0,0,1,3.58,1.31A4.94,4.94,0,0,1,180.57,12v1.43h-7a2.83,2.83,0,0,0,.74,2,2.65,2.65,0,0,0,2,.71,8.46,8.46,0,0,0,1.85-.2,10.1,10.1,0,0,0,1.83-.65v2.28a7.1,7.1,0,0,1-1.66.58A10.92,10.92,0,0,1,176.15,18.26Zm-.42-9.12a1.89,1.89,0,0,0-1.48.6,2.82,2.82,0,0,0-.61,1.68h4.15a2.42,2.42,0,0,0-.57-1.68A1.92,1.92,0,0,0,175.73,9.14Z" style="fill:#c62c2c"/><path d="M89.6,40h-3v-6.1H81V40H78V25.88h3v5.55h5.62V25.88h3Z" style="fill:#c62c2c"/><path d="M102.8,34.6a5.8,5.8,0,0,1-1.4,4.14,5.06,5.06,0,0,1-3.88,1.49,5.41,5.41,0,0,1-2.76-.69,4.52,4.52,0,0,1-1.83-2,6.51,6.51,0,0,1-.64-3,5.76,5.76,0,0,1,1.39-4.12A5.08,5.08,0,0,1,97.57,29a5.54,5.54,0,0,1,2.76.68,4.58,4.58,0,0,1,1.83,1.94A6.5,6.5,0,0,1,102.8,34.6Zm-7.5,0A4.56,4.56,0,0,0,95.83,37a2.21,2.21,0,0,0,3.43,0,4.68,4.68,0,0,0,.52-2.44,4.46,4.46,0,0,0-.53-2.41,2.23,2.23,0,0,0-3.42,0A4.44,4.44,0,0,0,95.3,34.6Z" style="fill:#c62c2c"/><path d="M111.3,29a4.52,4.52,0,0,1,1,.09l-.22,2.76a3.63,3.63,0,0,0-.87-.09,3.18,3.18,0,0,0-2.21.72,2.67,2.67,0,0,0-.79,2V40h-3V29.21h2.24l.43,1.82h.15a4.05,4.05,0,0,1,1.36-1.46A3.36,3.36,0,0,1,111.3,29Z" style="fill:#c62c2c"/><path d="M118.83,37.87a6.52,6.52,0,0,0,1.86-.33v2.19a6.59,6.59,0,0,1-2.71.5,3.32,3.32,0,0,1-2.59-.9,3.89,3.89,0,0,1-.81-2.68V31.43h-1.41V30.18l1.63-1,.85-2.28h1.89v2.3h3v2.22h-3v5.22a1.13,1.13,0,0,0,.36.92A1.37,1.37,0,0,0,118.83,37.87Z" style="fill:#c62c2c"/><path d="M122.76,26.42c0-1,.54-1.44,1.61-1.44s1.61.48,1.61,1.44a1.44,1.44,0,0,1-.4,1.07,1.72,1.72,0,0,1-1.21.38C123.3,27.87,122.76,27.38,122.76,26.42ZM125.84,40h-3V29.21h3Z" style="fill:#c62c2c"/><path d="M133.35,40.23c-3.38,0-5.06-1.85-5.06-5.55a5.93,5.93,0,0,1,1.37-4.21,5.19,5.19,0,0,1,4-1.46,7.56,7.56,0,0,1,3.38.74L136.11,32a13.77,13.77,0,0,0-1.3-.46,4.16,4.16,0,0,0-1.2-.18q-2.31,0-2.31,3.27t2.31,3.18a5.29,5.29,0,0,0,1.58-.23,5.77,5.77,0,0,0,1.46-.71v2.52a4.57,4.57,0,0,1-1.45.63A8,8,0,0,1,133.35,40.23Z" style="fill:#c62c2c"/><path d="M146.84,40l-.4-1.38h-.15a3.13,3.13,0,0,1-1.35,1.16,4.54,4.54,0,0,1-2,.42,3.77,3.77,0,0,1-2.88-1,4.06,4.06,0,0,1-1-2.93V29.21h3v6.32a3.11,3.11,0,0,0,.41,1.76,1.53,1.53,0,0,0,1.33.58,2,2,0,0,0,1.8-.82,5.13,5.13,0,0,0,.55-2.75V29.21h3V40Z" style="fill:#c62c2c"/><path d="M155.17,40h-3V25h3Z" style="fill:#c62c2c"/><path d="M162.84,37.87a6.52,6.52,0,0,0,1.86-.33v2.19a6.59,6.59,0,0,1-2.71.5,3.32,3.32,0,0,1-2.59-.9,3.89,3.89,0,0,1-.81-2.68V31.43h-1.41V30.18l1.63-1,.85-2.28h1.89v2.3h3v2.22h-3v5.22a1.16,1.16,0,0,0,.35.92A1.41,1.41,0,0,0,162.84,37.87Z" style="fill:#c62c2c"/><path d="M174.57,40l-.39-1.38H174a3.08,3.08,0,0,1-1.35,1.16,4.5,4.5,0,0,1-2,.42,3.74,3.74,0,0,1-2.88-1,4.06,4.06,0,0,1-1-2.93V29.21h2.95v6.32a3,3,0,0,0,.42,1.76,1.52,1.52,0,0,0,1.33.58,2,2,0,0,0,1.79-.82,5.11,5.11,0,0,0,.56-2.75V29.21h3V40Z" style="fill:#c62c2c"/><path d="M186,29a4.68,4.68,0,0,1,1,.09l-.23,2.76a3.63,3.63,0,0,0-.87-.09,3.14,3.14,0,0,0-2.2.72,2.64,2.64,0,0,0-.8,2V40h-3V29.21h2.24l.43,1.82h.15a4.05,4.05,0,0,1,1.36-1.46A3.39,3.39,0,0,1,186,29Z" style="fill:#c62c2c"/><path d="M193.87,40.23a5.57,5.57,0,0,1-4.09-1.45,5.45,5.45,0,0,1-1.47-4.08,6,6,0,0,1,1.36-4.2A4.86,4.86,0,0,1,193.44,29,4.76,4.76,0,0,1,197,30.32a4.9,4.9,0,0,1,1.28,3.61v1.43h-7a2.84,2.84,0,0,0,.75,2,2.65,2.65,0,0,0,2,.71,8.46,8.46,0,0,0,1.85-.2,10,10,0,0,0,1.82-.65v2.28A7,7,0,0,1,196,40,11,11,0,0,1,193.87,40.23Zm-.41-9.12a1.89,1.89,0,0,0-1.48.6,2.73,2.73,0,0,0-.61,1.68h4.15a2.4,2.4,0,0,0-.57-1.68A1.94,1.94,0,0,0,193.46,31.11Z" style="fill:#c62c2c"/><path d="M83.18,54.63a1.82,1.82,0,0,1-.71,1.53,3.05,3.05,0,0,1-1.93.55,4.85,4.85,0,0,1-2-.34v-.83a5.84,5.84,0,0,0,1,.3,5.63,5.63,0,0,0,1.07.11,2.13,2.13,0,0,0,1.3-.33,1.07,1.07,0,0,0,.44-.91,1.11,1.11,0,0,0-.16-.63,1.31,1.31,0,0,0-.52-.45,7.42,7.42,0,0,0-1.1-.48A3.51,3.51,0,0,1,79,52.27,2,2,0,0,1,78.6,51a1.66,1.66,0,0,1,.64-1.37A2.72,2.72,0,0,1,81,49.07a5.1,5.1,0,0,1,2,.41l-.27.75a4.59,4.59,0,0,0-1.8-.38,1.72,1.72,0,0,0-1.07.29,1,1,0,0,0-.39.82,1.18,1.18,0,0,0,.15.63,1.24,1.24,0,0,0,.48.45,5.89,5.89,0,0,0,1,.46,4.08,4.08,0,0,1,1.61.89A1.73,1.73,0,0,1,83.18,54.63Z" style="fill:#c62c2c"/><path d="M99.91,56.61H95.76V49.18h4.15V50H96.62v2.39h3.09v.76H96.62v2.74h3.29Z" style="fill:#c62c2c"/><path d="M113.47,53.52v3.09h-.86V49.18h2a3.26,3.26,0,0,1,2,.52,1.9,1.9,0,0,1,.66,1.58,2,2,0,0,1-1.5,2l2,3.34h-1L115,53.52Zm0-.74h1.19a2,2,0,0,0,1.34-.37,1.33,1.33,0,0,0,.43-1.09,1.24,1.24,0,0,0-.43-1.06,2.43,2.43,0,0,0-1.4-.32h-1.13Z" style="fill:#c62c2c"/><path d="M134.36,49.18h.93l-2.69,7.43h-.85l-2.67-7.43H130L131.71,54a13.18,13.18,0,0,1,.47,1.61,12.24,12.24,0,0,1,.48-1.64Z" style="fill:#c62c2c"/><path d="M147.36,56.61V49.18h.87v7.43Z" style="fill:#c62c2c"/><path d="M164.51,49.85a2.44,2.44,0,0,0-1.94.81,3.3,3.3,0,0,0-.71,2.23,3.34,3.34,0,0,0,.69,2.26,2.41,2.41,0,0,0,1.95.79,6.46,6.46,0,0,0,1.77-.28v.76a5.5,5.5,0,0,1-1.9.29,3.21,3.21,0,0,1-2.54-1,4.06,4.06,0,0,1-.9-2.83,4.57,4.57,0,0,1,.43-2,3.15,3.15,0,0,1,1.25-1.33,3.76,3.76,0,0,1,1.91-.47,4.64,4.64,0,0,1,2,.43l-.36.74A4,4,0,0,0,164.51,49.85Z" style="fill:#c62c2c"/><path d="M183.1,56.61H179V49.18h4.15V50h-3.28v2.39h3.08v.76h-3.08v2.74h3.28Z" style="fill:#c62c2c"/><path d="M200,54.63a1.84,1.84,0,0,1-.71,1.53,3.08,3.08,0,0,1-1.94.55,4.77,4.77,0,0,1-2-.34v-.83a5.47,5.47,0,0,0,1,.3,5.63,5.63,0,0,0,1.07.11,2.18,2.18,0,0,0,1.31-.33,1.06,1.06,0,0,0,.43-.91,1.2,1.2,0,0,0-.15-.63,1.39,1.39,0,0,0-.52-.45,7.16,7.16,0,0,0-1.11-.48,3.47,3.47,0,0,1-1.48-.88,1.9,1.9,0,0,1-.45-1.32,1.66,1.66,0,0,1,.65-1.37,2.68,2.68,0,0,1,1.71-.51,5.06,5.06,0,0,1,2,.41l-.27.75a4.54,4.54,0,0,0-1.79-.38,1.68,1.68,0,0,0-1.07.29,1,1,0,0,0-.39.82,1.28,1.28,0,0,0,.14.63,1.4,1.4,0,0,0,.48.45,6.06,6.06,0,0,0,1,.46,4.08,4.08,0,0,1,1.61.89A1.77,1.77,0,0,1,200,54.63Z" style="fill:#c62c2c"/><path d="M26,43.94H16.29V0H0V58H37.87V32.52H26ZM26,0V24.61H37.87V14.06h9.69V58H64.29V0Z" style="fill:#c62c2c"/><polygon points="37.87 14.06 37.87 24.61 25.98 24.61 25.98 0 16.29 0 16.29 43.94 25.98 43.94 25.98 32.52 37.87 32.52 37.87 58 47.56 58 47.56 14.06 37.87 14.06" style="fill:#fff"/></g></g></svg>